<?xml version="1.0" standalone="no"?>
<!DOCTYPE svg PUBLIC "-//W3C//DTD SVG 20010904//EN"
 "http://www.w3.org/TR/2001/REC-SVG-20010904/DTD/svg10.dtd">
<svg version="1.0" xmlns="http://www.w3.org/2000/svg"
 width="1280.000000pt" height="1237.000000pt" viewBox="0 0 1280.000000 1237.000000"
 preserveAspectRatio="xMidYMid meet">
<g transform="translate(0.000000,1237.000000) scale(0.100000,-0.100000)"
fill="#A9A9A9" stroke="none">
<path d="M6385 12353 c-8 -22 -361 -1387 -750 -2903 -161 -630 -326 -1271
-366 -1425 -39 -154 -93 -363 -118 -465 l-47 -185 -35 2 c-19 2 -1163 73
-2542 159 -1885 118 -2511 154 -2520 145 -8 -8 -8 -16 -1 -28 5 -8 966 -640
2134 -1404 1169 -763 2126 -1393 2128 -1398 2 -6 -152 -415 -342 -908 -910
-2368 -1466 -3813 -1484 -3859 -17 -43 -19 -55 -8 -69 11 -16 25 -7 137 86
474 395 3843 3164 3849 3164 4 0 881 -733 1949 -1630 1069 -896 1950 -1630
1959 -1630 12 0 17 8 16 25 -1 14 -75 214 -164 445 -89 231 -174 454 -190 495
-15 41 -123 324 -239 627 -116 304 -305 800 -421 1103 -115 302 -305 799 -421
1102 -116 304 -228 598 -249 653 -21 55 -61 160 -89 234 -42 109 -49 137 -39
147 7 6 963 632 2123 1389 1161 758 2119 1386 2130 1397 17 16 18 20 5 32 -13
13 -162 6 -1115 -49 -605 -35 -1536 -89 -2070 -120 -533 -30 -1160 -67 -1392
-80 -233 -14 -440 -25 -461 -25 l-37 0 -18 73 c-9 39 -61 245 -116 457 -54
212 -140 547 -190 745 -51 198 -107 419 -126 490 -19 72 -61 237 -94 368 -149
580 -185 721 -221 862 -21 83 -95 371 -164 640 -69 270 -152 596 -186 725 -33
129 -81 318 -107 420 -25 102 -50 191 -56 198 -14 18 -44 15 -52 -5z"/>
</g>
</svg>
