<?xml version="1.0" standalone="no"?>
<!DOCTYPE svg PUBLIC "-//W3C//DTD SVG 20010904//EN"
 "http://www.w3.org/TR/2001/REC-SVG-20010904/DTD/svg10.dtd">
<svg version="1.0" xmlns="http://www.w3.org/2000/svg"
 width="1034.000000pt" height="1034.000000pt" viewBox="0 0 1034.000000 1034.000000"
 preserveAspectRatio="xMidYMid meet">
<g transform="translate(0.000000,1280.000000) scale(0.100000,-0.100000)"
fill="#A9A9A9" stroke="none">
<path d="M5105 12794 c-639 -63 -1130 -248 -1598 -601 -648 -487 -1056 -1189
-1174 -2018 -27 -188 -24 -604 6 -795 56 -368 146 -649 310 -965 169 -328 416
-644 683 -876 l68 -58 -33 -5 c-1008 -154 -1622 -409 -2096 -870 -418 -407
-692 -949 -941 -1861 -173 -636 -257 -1043 -311 -1520 -17 -142 -17 -609 -1
-740 69 -562 257 -975 606 -1334 610 -625 1640 -982 3191 -1106 679 -54 1621
-58 2330 -10 1684 114 2810 488 3476 1154 396 397 616 878 696 1523 22 175 24
682 4 883 -58 595 -149 1100 -272 1503 -363 1192 -1122 1883 -2434 2217 -115
29 -262 63 -325 75 -63 12 -121 23 -128 26 -8 2 11 23 45 51 559 450 953 1129
1067 1838 57 353 50 747 -20 1090 -233 1153 -1128 2068 -2277 2330 -204 46
-377 66 -612 70 -121 2 -238 1 -260 -1z"/>
</g>
</svg>
